<?xml version="1.0" standalone="no"?>
<!DOCTYPE svg PUBLIC "-//W3C//DTD SVG 20010904//EN"
 "http://www.w3.org/TR/2001/REC-SVG-20010904/DTD/svg10.dtd">
<svg version="1.0" xmlns="http://www.w3.org/2000/svg"
 width="700.000000pt" height="700.000000pt" viewBox="0 0 700.000000 700.000000"
 preserveAspectRatio="xMidYMid meet">
<metadata>
Created by potrace 1.14, written by Peter Selinger 2001-2017
</metadata>
<g transform="translate(0.000000,700.000000) scale(0.100000,-0.100000)"
fill="#000000" stroke="none">
<path d="M3396 5815 c-183 -70 -248 -300 -128 -452 173 -218 522 -96 522 182
0 102 -71 214 -166 260 -51 25 -174 30 -228 10z"/>
<path d="M2403 4685 c-86 -26 -146 -78 -183 -161 -49 -106 -21 -247 64 -329
67 -65 355 -223 501 -275 256 -92 450 -125 720 -124 169 0 242 6 365 30 41 9
86 17 100 20 43 8 246 73 302 97 162 68 389 200 450 262 15 15 39 52 53 81 86
181 -42 397 -241 409 -75 5 -141 -17 -231 -77 -165 -110 -411 -206 -578 -224
-27 -3 -68 -9 -90 -13 -67 -11 -264 -4 -370 14 -177 30 -347 90 -476 166 -28
16 -52 29 -54 29 -3 0 -27 16 -54 35 -26 19 -66 42 -87 51 -50 21 -138 25
-191 9z"/>
<path d="M1365 3651 c-177 -47 -268 -238 -194 -406 23 -52 74 -102 205 -201
54 -40 104 -77 109 -82 23 -18 206 -132 270 -169 373 -215 858 -379 1270 -428
28 -4 61 -8 75 -11 144 -23 524 -23 780 0 288 27 677 130 990 263 102 44 369
179 391 199 8 8 19 14 23 14 16 0 265 172 367 253 114 91 141 122 165 189 70
197 -97 408 -303 384 -57 -7 -128 -35 -159 -64 -10 -10 -59 -48 -109 -85 -49
-37 -94 -70 -100 -75 -5 -4 -57 -37 -115 -74 -241 -150 -542 -280 -805 -347
-175 -44 -363 -75 -535 -87 -150 -10 -451 -4 -530 11 -12 2 -48 7 -79 11 -46
5 -147 25 -309 60 -59 12 -262 78 -350 113 -296 118 -548 267 -804 476 -62 50
-178 76 -253 56z"/>
<path d="M333 2610 c-135 -44 -215 -156 -208 -293 5 -90 41 -153 134 -234 115
-101 122 -106 255 -207 519 -391 1114 -678 1755 -846 47 -12 96 -24 110 -26
14 -3 53 -11 86 -19 33 -7 78 -17 100 -21 22 -4 47 -8 55 -10 58 -11 145 -25
186 -30 27 -3 60 -8 74 -9 14 -2 54 -7 90 -10 36 -4 79 -8 95 -10 76 -10 265
-18 420 -18 162 -1 442 10 454 17 3 2 47 7 96 11 50 4 92 8 95 10 3 1 32 6 65
9 33 4 67 9 75 11 8 2 33 6 55 10 22 3 96 17 165 31 69 14 132 27 140 29 24 5
198 51 280 75 411 117 912 349 1310 608 174 113 429 307 551 419 131 121 140
306 21 429 -82 85 -217 111 -324 62 -30 -14 -63 -34 -74 -45 -64 -65 -310
-254 -469 -360 -561 -373 -1227 -622 -1870 -698 -27 -3 -59 -8 -70 -10 -130
-26 -804 -27 -966 0 -13 2 -46 6 -74 10 -72 9 -176 24 -205 30 -14 2 -36 7
-50 10 -14 2 -37 7 -52 9 -83 14 -298 70 -453 118 -55 18 -102 32 -105 33 -12
4 -54 20 -200 77 -159 62 -400 177 -550 263 -177 101 -478 308 -601 413 -170
145 -211 169 -299 176 -25 1 -69 -5 -97 -14z"/>
</g>
</svg>
